<svg xmlns="http://www.w3.org/2000/svg" viewBox="0 0 1451.3 1451.3"><path d="M55.5 936.3c-32.1-44.2-70.8-249.6-5.4-462.1 43.6 108.5 166.4 141 305.6 89.8-42.7 89-74.3 293.8-66.9 352.9-82.8 45.3-145.4 51-233.3 19.4z"/><path d="M751.5 107.1c-87.8-2.5-177.8 4.3-238.8 78-85.3 102.9-21 254.6-176.3 353.1-140 88.8-273.2-38.4-279-128.5C35.2 68.1 571.2-23.9 751.5 107.1zM292.9 937.5c30.1 122.3 81.7 214 126.9 278.5-5.8 47.5-86.4 100.5-155.8 88-81.1-62.9-168.4-199.5-207.3-344 89.1 35.9 180.5 15.6 236.2-22.5z"/><path d="M285 1321.3c59.3-3.1 139.9-37.5 147.2-89.6 122.6 72.6 211.5 101.3 329 93.2 24 19.3 33.2 67.2 26.1 105.6-181 23.5-388.6 4.2-502.3-109.2zM803.9 1427.3c4.2-28.6 3.5-84.3-28.2-104.4 115.9-26.7 169.4-74.2 197.9-118 12.9 5.8 57.2 1.9 71.8-9.9 3 89.1-128.1 203.9-241.5 232.3z"/><g><path d="M1111.6 599.4l16.2-119.6c44 24.4 102.1 28.4 154.9 4.6l-70.2 162.7c-24.3-25.3-65.5-40.1-100.9-47.7z"/><path d="M1066.9 654.5l40.2-45.9c31.9 5.8 71.7 18.4 99.1 49.7l-114.3 59.9c-20.6-15-29.9-39.4-25-63.7zM863.3 12c-14.7.1-29.5.7-43.8 1.9 221.3 71.8 406.6 251.6 242.2 356.3 59.3 8 94.3 96.1 68.6 103.1 88.4 43.1 212.5 10.6 212.5-103.1-.1-247-257.6-359.9-479.5-358.2zm258.4 459c21.5-12.3-17.3-84.6-66-95.7-45.6 18.7-120.8-91.9-121-171.5-59 75.6 16.9 333.5 187 267.2zM722 691.1l-32-44.9c-15.1 23.8-42.7 38.9-75 41.2l70.8 53.6c5.2-18.9 20.8-36.8 36.2-49.9zM764.4 700.5l-32.6-3.5c-14.1 11.4-30.3 28.1-35.5 50.8l82.2 5.4c6.2-12.7-5.3-42.1-14.1-52.7z"/><path d="M693.2 338.4c7.3-3.8 14.7-7.4 22-10.8-89.9 94.2-133.4 232-24.5 239.8-27 19.7-20.9 72.4-6.3 69-32.1 44.7-101.8 61.8-132 5.7-65.6-121.4 31.2-245.5 140.8-303.7zM691.4 631c-13.9-.2-14-44 7.1-62.4 27.4-3 31.7-77.4 10.5-116.6 49.2 21.5 83.9 166.4-17.6 179z"/></g><g><path d="M775.4 696.7c11.3 14.4 20.6 49.8 10.2 60.2l8.9 37.1c90.8 25.1 218.5 6.7 287.3-36.9l.1-33.2c-15.6-11-31.4-38.8-25.3-68l-15.2-38.3c-62.5-18-196.7-13.4-258.2 41.7l-7.8 37.4zM784.4 644c-6.2-36.9 3.3-75.9 66.2-107-33.8 34.5-22.9 64.1-13.9 81.7-14.5 4.5-31.8 11.3-52.3 25.3zM944.7 527.2c20.4 13.1 34.5 55.5 32.2 73.4 20.7.5 41 2.1 61.9 8.9-12.9-30.1-49.2-75.3-94.1-82.3zM936.9 1148.2c7.7 22.8 21.2 38.6 35.7 47.7 20.9 6.6 48.4 4.1 74-13.2 25.9-23.9 42.8-51.5 52.4-86.1-45.4 34.4-120.5 57.8-162.1 51.6z"/><path d="M796.2 804.7c7.1 56.5 22.3 100.2 37.8 120.5 71.7 17.2 204.9-9.9 256.5-57.6 3.8-31.3 2.7-58.9-7.6-95.1-96.9 44.6-201.1 51.5-286.7 32.2z"/><path d="M836.8 936.3c4.8 41.4 27.1 87.7 43.1 103.3 109.8 8.7 158.6-9.8 231.4-55.2 3.1-48.4-7.1-77.8-19.4-105.6-59.5 52-188 68.3-255.1 57.5z"/><path d="M884 1048c3.2 28.6 25.6 63.8 50.9 92.6 44 4.1 97.2-9.2 162.9-49.5 6.3-17.1 21-64.6 15.2-95.6-62.6 40-121.9 65.5-229 52.5z"/></g><g><path d="M1116.5 929.8c1.1 8.7 3.2 22.4 1.9 36.4l52.9 29.6c15.2 2.4 33.6-16.7 31.9-34.7l-86.7-31.3zM1102.1 877.3c4.6 10.5 7.8 18.6 11.1 37.1l123.1 15.4c19.6-5.2 32.2-27.9 36.5-45.6l-170.7-6.9zM1103.4 835.1c1.5 8.5.9 19.4-.1 31.6l178-.6c17.6-1.4 37-24.8 30.6-47.7l-208.5 16.7zM1095.3 769.2c4.3 16 6.6 28.2 6.8 42.5l258.8-12.3c16.2-5.6 31.1-52.7 22-68.6l-287.6 38.4z"/><path d="M1396 730.4l40.2 195.6c-5.3 8.4-17.5 12.1-24.3 5.3l-38.8-127.2c17.9-7.7 27.7-42.7 22.9-73.7zM1411.1 938.1l-16.2 69.1c8.2.4 11 1.4 14.5 4.2l27.5-75.3c-5.3 6.3-17 11-25.8 2zM1392 1012.7c-2.6 9.7-3.8 11.3-10 21.8 9 .6 21.7-8.3 25.4-16.7-3.3-4.4-9.8-7-15.4-5.1zM1296.9 869.4c25-5.9 31-32.4 29.5-50.8l30.2 123.6c-5.2 6.4-14.6 11.4-25.6 8.2l-34.1-81zM1331.5 956.9l12.8 105.2c7.4 4.6 13.9 4.5 20.6-.2l-6.8-112.8c-6.2 7.5-14.1 10-26.6 7.8zM1344.2 1067.2c-2 11.4-8.3 13.5-14.6 18.1 10.5.9 25.3 1.2 34.7-17.6-7.8 4.2-14.4 4-20.1-.5zM1246.8 935.6l23.5 77.4c11.5 3.6 21.5-.4 29.8-7.9L1288 884.6c-4.7 22.8-21.5 49.8-41.2 51zM1270 1019.9l-2.1 79.1c5.1 6.1 13.2 6.6 21.7 2.1l11.1-88.2c-11.3 8.3-17.8 9.7-30.7 7zM1267.1 1105.7c-1 17.8-7.6 27.7-18.1 32.9 24.1-.6 39.4-13.4 40.2-31.1-8.1 5.5-17.2 3.2-22.1-1.8zM1179.7 1000.7l8.9 94.3c6.9 6.2 15.8 8.8 24.1 1.4l2-130.8c-4.6 25.8-23.4 37-35 35.1zM1186 1101.8l-22.8 32.1c3 6.2 10 11.1 15.1 8.5l32.9-38.1c-9.4 5.6-16.6 3.8-25.2-2.5zM1158.1 1138.4c-2.8 8.2-7.1 12.5-16.7 16.3 11.6 2.1 21 2.7 32.4-6.8-5.8 1.9-12.6-2.4-15.7-9.5z"/></g><g><path d="M833.5 957.3c2.1 8.4 5.2 22 11.6 34.5l-48.9 52.1c-13.4 7.8-37.4-3.3-42.5-20.6l79.8-66zM817 908.4c3.6 10.3 7.8 19.7 14.7 21.3-6.8 5-5.3 9.5-3.6 17.5l-116.9 59.2c-20.1 2.2-40.2-14.1-50.6-29.1L817 908.4zM794.1 866.3c3.2 11.6 7.7 24.1 12.9 35l-175.1 27.2c-17.6 2.1-41.1-17.3-39.1-41.1l201.3-21.1zM784.1 804.3c2 24.1 2.8 32.3 4.7 43.3l-271.9-12.4c-16.3-5.3-31.8-52.3-23-68.3l290.2 37.4z"/><path d="M484.2 768.1l-64 188c4.2 9 15.6 14.4 23.4 8.5l63.8-125.2c-16.7-10.2-32.1-41.2-23.2-71.3zM443.6 971.3l6.8 70.6c-8.2-.6-11-.1-14.9 2.2l-17.2-78.3c4.3 7.1 15.4 13.3 25.3 5.5zM452.6 1047.8c1.2 9.9 2.2 11.6 7.1 23-9-.5-20.3-11.1-22.9-20.1 3.5-3.9 10.5-5.7 15.8-2.9zM618 935.1c-24.4-8.2-35.9-31.1-32.8-49.2l-40.9 120.5c4.6 6.9 13.5 12.6 24.8 10.4l48.9-81.7zM568.1 1023.1l20.3 99.7c-7.8 4-14.1 3.2-20.4-2.1l-25.4-107.8c5.2 8.3 12.9 11.5 25.5 10.2zM589.8 1127.3c1 11.5 6.8 14.9 15.4 15.6-10.5 5-27.5 1.1-35.4-16.8 7.4 4.8 13.9 5.1 20 1.2zM705.9 1012.9l4.3 83.3c-9.4 7.7-20.2 7.6-30.7 3.6L653.9 980c8.3 16.3 25.8 33.4 52 32.9zM713 1102.5l30.8 72.8c-2.5 7.4-9.9 10.9-19.3 9.9l-42.6-77.9c13.5 3.4 20.1 2.5 31.1-4.8zM747.2 1181.2c7.4 16.2 17.1 23.2 28.8 24-22.7 8.3-41.5 2-48.8-14.2 9.6 2.1 17.2-3.3 20-9.8zM792.5 1050.7l23.9 91.9c-4.1 8.3-11.5 14-22 10.2l-45.4-125c8.6 20.8 27.8 27 43.5 22.9zM821.2 1147.9l32.9 21.5c-.5 6.9-5.2 14-10.9 13.5l-44.6-23.4c10.7 1.8 16.8-2.5 22.6-11.6zM860.5 1171.8c5.6 6.6 11.1 9 21.5 9-10 6.2-18.6 10.3-32.7 5.6 6.2-.3 10.9-6.8 11.2-14.6z"/></g></svg>